# xmcd
#
# Track frame offsets: 
#        183
#        15083
#        39033
#        58683
#        75358
#        99858
#        119833
#        141933
#        161458
#        177033
#
# Disc length: 2550 seconds
#
# Revision: 3
# Processed by: cddbd v1.5.1PL0 Copyright (c) Steve Scherf et al.
# Submitted via: ExactAudioCopy v0.95a5
#
DISCID=6909f40a
DTITLE=Katmandu (Peter Green, Ray Dorset, Vincent Crane, Jeff Wittaker
DTITLE=) - A Case For The Blues
DYEAR=1985
DGENRE=Blues
TTITLE0=(Vincent) Cranes Train Boogie
TTITLE1=Blowing All My Troubles Away
TTITLE2=Who's That Knocking
TTITLE3=The Case
TTITLE4=One More Night Without You
TTITLE5=Boogie All The Way
TTITLE6=Stranger Blues
TTITLE7=Dust My Blues
TTITLE8=Sweet Sixteen
TTITLE9=Zulu Gone West
EXTD=
EXTT0=
EXTT1=
EXTT2=
EXTT3=
EXTT4=
EXTT5=
EXTT6=
EXTT7=
EXTT8=
EXTT9=
PLAYORDER=
